HIERARCHY
ROOT Hips
{
	OFFSET 0.000000 0.000000 0.000000 
	CHANNELS 6 Xposition Yposition Zposition Yrotation Zrotation Xrotation 
	JOINT Lumbar
	{
		OFFSET 0.000000 0.000000 0.000000 
		CHANNELS 3 Zrotation Xrotation Yrotation
		JOINT Neck
		{
			OFFSET 0.000000 0.445665 0.000000 
			CHANNELS 3 Zrotation Xrotation Yrotation
			End Site
			{
				OFFSET 0.000000 0.227535 0.000000 
			}
		}
		JOINT RightShoulder
		{
			OFFSET 0.019635 0.377685 0.194865 
			CHANNELS 3 Zrotation Xrotation Yrotation
			JOINT RightElbow
			{
				OFFSET 0.000000 -0.243375 0.000000 
				CHANNELS 2 Zrotation Yrotation
				JOINT RightWrist
				{
					OFFSET 0.000000 -0.264825 0.000000 
					CHANNELS 2 Zrotation Xrotation
					End Site
					{
						OFFSET 0.006600 -0.176220 0.000990 
					}
				}
			}
		}
		JOINT LeftShoulder
		{
			OFFSET 0.019635 0.377685 -0.194865 
			CHANNELS 3 Zrotation Xrotation Yrotation
			JOINT LeftElbow
			{
				OFFSET 0.000000 -0.243375 0.000000 
				CHANNELS 2 Zrotation Yrotation
				JOINT LeftWrist
				{
					OFFSET 0.000000 -0.264825 0.000000 
					CHANNELS 2 Zrotation Xrotation
					End Site
					{
						OFFSET 0.006600 -0.176220 -0.000990 
					}
				}
			}
		}
	}
	JOINT RightHip
	{
		OFFSET 0.052140 -0.069960 0.075570 
		CHANNELS 3 Zrotation Xrotation Yrotation
		JOINT RightKnee
		{
			OFFSET 0.000000 -0.402270 0.000000 
			CHANNELS 1 Zrotation
			JOINT RightAnkle
			{
				OFFSET 0.000000 -0.404085 0.000000 
				CHANNELS 3 Zrotation Xrotation Yrotation
				End Site
				{
					OFFSET 0.204105 -0.089430 0.008415 
				}
			}
		}
	}
	JOINT LeftHip
	{
		OFFSET 0.052140 -0.069960 -0.075570 
		CHANNELS 3 Zrotation Xrotation Yrotation
		JOINT LeftKnee
		{
			OFFSET 0.000000 -0.402270 0.000000 
			CHANNELS 1 Zrotation
			JOINT LeftAnkle
			{
				OFFSET 0.000000 -0.404085 0.000000 
				CHANNELS 3 Zrotation Xrotation Yrotation
				End Site
				{
					OFFSET 0.204105 -0.089430 -0.008415 
				}
			}
		}
	}
}
MOTION
Frames: 31
Frame Time: 0.02
-0 0.95578 0 181.06957 0 -4.64094 6.07142 4.34073 -3.80874 -39.37372 2.20045 5.29257 -23.18594 -73.59738 -80.72583 15.45321 47.98874 -36.17363 1.44468 36.50627 67.32938 70.5796 18.09332 -85.11059 -23.41641 3.71345 -2.93755 5.43299 -2.17059 -8.82217 1.29971 -3.85798 -9.1479 -2.34597 7.30344 13.28571 -7.58178 4.23817 4.90378 10.43121
0.00051 0.95586 2e-05 181.07825 0 -4.64531 5.96601 4.34259 -3.74225 -39.42504 2.10524 5.21407 -22.31268 -73.42173 -80.76559 15.63949 47.90079 -35.92806 1.47455 36.91152 67.53978 70.12127 18.087 -84.96362 -23.45527 3.70702 -2.87253 5.43515 -2.23165 -8.88254 1.27923 -3.85958 -9.11905 -2.27825 7.31408 13.29262 -7.64683 4.21267 4.89263 10.43875
0.00103 0.95594 3e-05 181.08693 0 -4.64966 5.86027 4.34429 -3.67589 -39.47901 2.00944 5.13532 -21.43003 -73.24505 -80.80677 15.82602 47.81693 -35.6805 1.50407 37.31917 67.7499 69.66217 18.08069 -84.81631 -23.49386 3.70026 -2.80715 5.43744 -2.29201 -8.94318 1.25888 -3.8611 -9.09081 -2.21045 7.32476 13.29927 -7.71155 4.1871 4.88151 10.44637
0.00156 0.95602 4e-05 181.09572 0 -4.65391 5.75391 4.34553 -3.60977 -39.54096 1.91132 5.05572 -20.52716 -73.06607 -80.84707 16.01514 47.72566 -35.42839 1.53581 37.73657 67.96103 69.19886 18.07401 -84.6678 -23.53143 3.6924 -2.7406 5.44004 -2.3509 -9.0049 1.23905 -3.86196 -9.06417 -2.14235 7.33553 13.30515 -7.77547 4.16117 4.87051 10.45442
0.00202 0.9561 8e-05 181.10401 0 -4.65864 5.6529 4.3494 -3.54282 -39.5569 1.82669 4.98171 -19.76243 -72.9035 -80.88374 16.19025 47.64622 -35.20735 1.55978 38.09765 68.16691 68.76192 18.06885 -84.52757 -23.57403 3.69073 -2.6814 5.44073 -2.41848 -9.06016 1.21666 -3.86593 -9.0284 -2.07666 7.34559 13.31538 -7.84346 4.13738 4.85896 10.46024
0.00264 0.95617 4e-05 181.11328 0 -4.6624 5.53928 4.34761 -3.47744 -39.67268 1.71278 4.89524 -18.68527 -72.70354 -80.93369 16.39501 47.56045 -34.9161 1.59745 38.58066 68.38363 68.2669 18.06077 -84.36868 -23.60621 3.67571 -2.60593 5.44564 -2.467 -9.12954 1.19959 -3.86359 -9.01241 -2.00536 7.35732 13.31622 -7.90289 4.10894 4.84854 10.47076
0.00364 0.95622 -0.0002 181.12612 0 -4.66309 5.39761 4.33036 -3.41683 -40.05571 1.51898 4.77679 -16.86269 -72.41496 -80.97328 16.68868 47.29293 -34.45593 1.69883 39.40125 68.63723 67.61345 18.04191 -84.16291 -23.60793 3.62439 -2.48814 5.46111 -2.46744 -9.23726 1.19822 -3.84053 -9.04883 -1.92048 7.37249 13.29137 -7.93885 4.06755 4.8415 10.49511
0.0048 0.95627 -0.00053 181.13984 0 -4.66287 5.24156 4.3073 -3.35765 -40.54117 1.2954 4.64534 -14.70314 -72.08581 -81.03339 17.01112 47.04593 -33.92016 1.80985 40.34656 68.90033 66.89947 18.02067 -83.93746 -23.60001 3.55951 -2.3532 5.48105 -2.44786 -9.35955 1.20203 -3.81162 -9.10562 -1.82929 7.38958 13.25689 -7.96633 4.02141 4.83555 10.5241
0.00592 0.95631 -0.00083 181.15259 0 -4.66334 5.08782 4.28684 -3.29749 -40.98622 1.08428 4.51786 -12.61635 -71.76506 -81.11678 17.31648 46.89993 -33.40166 1.89915 41.23416 69.15547 66.21209 18.00215 -83.71741 -23.59688 3.50034 -2.22443 5.49968 -2.43437 -9.47563 1.20281 -3.78759 -9.15466 -1.73983 7.40654 13.22669 -7.99748 3.97754 4.82893 10.55036
0.00692 0.95637 -0.00109 181.16763 0 -4.66267 4.95293 4.26677 -3.23882 -41.40676 0.87692 4.39786 -10.86052 -71.48589 -81.06904 17.63957 46.30061 -32.9538 2.05974 42.12236 69.42778 65.53196 17.97637 -83.51135 -23.58969 3.44281 -2.10307 5.51527 -2.43329 -9.58965 1.20644 -3.75445 -9.19755 -1.65591 7.4203 13.19716 -8.02886 3.93339 4.82306 10.57905
0.0082 0.9564 -0.00144 181.17827 0 -4.66413 4.77408 4.24425 -3.17727 -41.90088 0.65566 4.26012 -8.34604 -71.11151 -81.29116 17.93149 46.63494 -32.34278 2.07651 43.04351 69.66426 64.8182 17.96558 -83.27273 -23.59162 3.379 -1.96155 5.53824 -2.40195 -9.7118 1.20533 -3.73855 -9.25782 -1.55806 7.44123 13.16361 -8.0584 3.88847 4.81586 10.60405
0.01012 0.95637 -0.002 181.17521 0 -4.67207 4.48811 4.21887 -3.10857 -42.58861 0.39467 4.06858 -3.72529 -70.47542 -82.31975 18.13957 49.67474 -31.28331 1.67347 43.9889 69.81915 64.05927 17.9933 -82.93797 -23.59615 3.29814 -1.77392 5.5808 -2.28921 -9.84969 1.19026 -3.77467 -9.36332 -1.43069 7.48102 13.12419 -8.07921 3.84443 4.80497 10.61541
0.01232 0.95631 -0.00265 181.16806 0 -4.68216 4.15622 4.19083 -3.03675 -43.3439 0.12232 3.86113 1.63017 -69.74674 -83.60455 18.31363 53.62867 -30.06574 1.12911 44.97151 69.93374 63.26098 18.03693 -82.57312 -23.61506 3.21198 -1.56553 5.6306 -2.14734 -9.99585 1.17011 -3.82781 -9.48522 -1.28807 7.52806 13.08047 -8.09945 3.79939 4.79265 10.62328
0.01443 0.95626 -0.00326 181.16351 0 -4.69101 3.83848 4.16233 -2.96554 -44.05818 -0.13918 3.66618 6.58737 -69.06595 -84.73146 18.49714 57.07734 -28.9307 0.66283 45.95892 70.05421 62.46093 18.07544 -82.22931 -23.6435 3.13024 -1.36321 5.67686 -2.0204 -10.14027 1.15213 -3.87121 -9.59814 -1.14766 7.57206 13.03692 -8.12378 3.75367 4.78084 10.63431
0.01637 0.95622 -0.00385 181.15537 0 -4.70082 3.54923 4.14045 -2.89763 -44.81982 -0.42571 3.44851 11.82676 -68.35841 -86.04347 18.70677 60.90617 -27.74607 0.13858 46.85263 70.22855 61.74761 18.10458 -81.85386 -23.60298 3.03955 -1.17479 5.72423 -1.88503 -10.27665 1.13517 -3.92283 -9.71813 -1.02722 7.61497 13.0008 -8.13193 3.71279 4.76971 10.63904
0.01874 0.95617 -0.0045 181.15434 0 -4.7093 3.18912 4.10449 -2.82228 -45.49718 -0.66244 3.27457 16.6501 -67.68611 -87.01875 18.85385 64.15973 -26.6305 -0.29885 47.9567 70.2797 60.83768 18.1575 -81.53722 -23.71063 2.96641 -0.95233 5.77108 -1.76129 -10.43159 1.11448 -3.96151 -9.8271 -0.86133 7.66192 12.94799 -8.17337 3.66139 4.75675 10.6558
0.02217 0.95613 -0.00526 181.16871 0 -4.7122 2.65121 4.02814 -2.72531 -45.92781 -0.7587 3.22509 20.12943 -67.12486 -87.10079 18.8341 65.6034 -25.72412 -0.46026 49.5634 70.01087 59.45721 18.26914 -81.392 -24.21446 2.9432 -0.64394 5.81363 -1.67055 -10.63545 1.0877 -3.95956 -9.90099 -0.57646 7.71757 12.85311 -8.3101 3.5832 4.73952 10.70831
0.02602 0.9561 -0.00608 181.19131 0 -4.71388 2.04222 3.93816 -2.62123 -46.27044 -0.80451 3.22015 23.16613 -66.60362 -86.81583 18.75309 66.43637 -24.89646 -0.52997 51.39251 69.61709 57.86825 18.40524 -81.3066 -24.86792 2.93784 -0.3014 5.85554 -1.59371 -10.85781 1.0568 -3.94415 -9.96326 -0.24596 7.77705 12.74122 -8.47961 3.49401 4.72036 10.77263
0.02972 0.95606 -0.00687 181.21367 0 -4.71707 1.46168 3.85589 -2.52164 -46.65101 -0.87313 3.19514 26.41352 -66.07075 -86.63449 18.70132 67.54692 -24.04692 -0.64262 53.16482 69.27423 56.33463 18.53153 -81.19306 -25.46019 2.9243 0.02724 5.89854 -1.51475 -11.07169 1.02579 -3.9354 -10.03117 0.06551 7.83529 12.63502 -8.63228 3.4087 4.70188 10.83056
0.03328 0.95603 -0.00767 181.22136 0 -4.71652 0.89647 3.76713 -2.41682 -47.0421 -0.9419 3.16934 29.64543 -65.50907 -86.73141 18.64163 68.68785 -23.13479 -0.75413 54.75267 68.9564 54.96834 18.65085 -81.08327 -26.02759 2.91099 0.34929 5.9387 -1.41727 -11.28572 1.00284 -3.92496 -10.09808 0.37056 7.89202 12.53665 -8.7939 3.32853 4.68443 10.89311
0.03722 0.95599 -0.00846 181.26128 0 -4.72319 0.28218 3.68869 -2.32103 -47.3902 -0.99918 3.15536 32.79618 -65.01548 -86.15498 18.58539 69.61026 -22.37173 -0.8453 56.77566 68.55517 53.2016 18.79281 -80.97925 -26.6779 2.90133 0.69351 5.98418 -1.36176 -11.50427 0.96237 -3.91461 -10.16416 0.6993 7.95229 12.41876 -8.94372 3.2345 4.6641 10.94839
0.04207 0.95592 -0.00921 181.39086 0 -4.75219 -0.44283 3.64188 -2.25365 -47.63438 -1.02896 3.16813 35.81424 -64.7223 -83.83397 18.54487 70.06157 -22.02028 -0.89445 59.95657 67.97211 50.40467 18.9701 -80.88653 -27.55586 2.89904 1.08552 6.04741 -1.42141 -11.72587 0.87294 -3.90788 -10.23016 1.08505 8.0248 12.24454 -9.06108 3.10952 4.63876 10.98488
0.04729 0.95584 -0.00996 181.55197 0 -4.7881 -1.21605 3.60592 -2.19524 -47.83923 -1.05049 3.19031 38.76437 -64.49203 -80.84152 18.51193 70.31424 -21.81366 -0.92727 63.56451 67.30612 47.20737 19.17342 -80.7965 -28.50483 2.89955 1.49953 6.11545 -1.52234 -11.95221 0.76632 -3.90161 -10.2958 1.49249 8.10005 12.05256 -9.16398 2.97013 4.61015 11.01294
0.05236 0.95576 -0.0107 181.6971 0 -4.81947 -1.9717 3.56517 -2.13166 -48.06618 -1.08091 3.20509 41.75415 -64.21965 -78.13941 18.48117 70.66236 -21.52854 -0.97208 66.97099 66.6668 44.17765 19.37842 -80.69802 -29.3988 2.89766 1.90668 6.17933 -1.60294 -12.17964 0.66862 -3.89501 -10.36186 1.88808 8.17175 11.87295 -9.26809 2.83425 4.58136 11.04207
0.05737 0.95568 -0.01147 181.85007 0 -4.85672 -2.71111 3.52354 -2.07265 -48.27228 -1.08742 3.23497 44.69581 -64.00808 -75.48916 18.4237 70.96121 -21.29834 -0.99386 70.42063 66.07032 41.20197 19.52644 -80.62941 -30.3964 2.90102 2.30175 6.25148 -1.69119 -12.39426 0.56611 -3.88846 -10.42622 2.29362 8.25331 11.67431 -9.39571 2.71071 4.55941 11.08305
0.0626 0.95559 -0.01217 181.99334 0 -4.88333 -3.49542 3.48625 -2.00609 -48.51359 -1.143 3.23458 47.7223 -63.68128 -72.57365 18.4255 71.33178 -20.9887 -1.06169 73.87363 65.36565 38.02055 19.80003 -80.50186 -31.19002 2.89402 2.7268 6.30759 -1.77247 -12.63616 0.46961 -3.88208 -10.49448 2.68308 8.31496 11.51166 -9.47084 2.55831 4.52263 11.09747
0.06835 0.95548 -0.01266 182.10884 0 -4.87943 -4.38657 3.46045 -1.91876 -48.86197 -1.33146 3.15222 51.04135 -63.04561 -69.1126 18.58083 71.87962 -20.41295 -1.25456 77.27296 64.3897 34.37856 20.40577 -80.18172 -31.42891 2.85656 3.22854 6.31794 -1.83037 -12.95416 0.39367 -3.87601 -10.57063 3.02164 8.3209 11.44985 -9.40117 2.32874 4.44422 11.03804
0.07432 0.95535 -0.01306 182.21235 0 -4.86458 -5.32185 3.43836 -1.82332 -49.24734 -1.57071 3.03815 54.44134 -62.28642 -65.40546 18.79756 72.52335 -19.75544 -1.49612 80.65036 63.30639 30.54392 21.13876 -79.80755 -31.45494 2.80886 3.75941 6.3121 -1.87883 -13.29865 0.32435 -3.87012 -10.6511 3.34321 8.3068 11.42536 -9.27958 2.07089 4.35131 10.95254
0.0802 0.95521 -0.0135 182.31671 0 -4.85428 -6.24009 3.41316 -1.72987 -49.61631 -1.79005 2.93571 57.78051 -61.56818 -61.79776 18.99176 73.17045 -19.14055 -1.71955 84.01154 62.26897 26.79053 21.81825 -79.47666 -31.56006 2.76632 4.27758 6.31378 -1.92744 -13.6301 0.25233 -3.86426 -10.73182 3.67316 8.30177 11.3859 -9.18388 1.82667 4.26603 10.88069
0.08606 0.95511 -0.01395 182.44098 0 -4.84563 -7.14741 3.39414 -1.64308 -49.98289 -1.99573 2.84515 61.22314 -60.91873 -58.2182 19.16291 73.60816 -18.50172 -1.92459 87.50518 61.24341 23.04415 22.47884 -79.06588 -31.7403 2.72111 4.79532 6.31466 -1.99428 -13.9674 0.17883 -3.85809 -10.804 4.00133 8.2966 11.33791 -9.07823 1.57852 4.17621 10.80118
0.092 0.95494 -0.01437 182.52129 0 -4.83135 -8.08719 3.36322 -1.5414 -50.36279 -2.24194 2.72249 64.46465 -60.09276 -54.53106 19.39728 74.51227 -17.89895 -2.18082 90.70352 60.16547 19.24955 23.21063 -78.80984 -31.71506 2.67978 5.31925 6.31366 -2.02126 -14.29694 0.10966 -3.8524 -10.89398 4.32861 8.28741 11.31618 -8.98089 1.3322 4.09246 10.73127
